<?xml version="1.0" encoding="UTF-8" standalone="no"?>
<!DOCTYPE svg PUBLIC "-//W3C//DTD SVG 1.1//EN"
 "http://www.w3.org/Graphics/SVG/1.1/DTD/svg11.dtd">
<!-- Generated by graphviz version 2.38.0 (20140413.2041)
 -->
<!-- Title: G Pages: 1 -->
<svg width="1408pt" height="124pt"
 viewBox="0.00 0.00 1408.10 123.98" xmlns="http://www.w3.org/2000/svg" xmlns:xlink="http://www.w3.org/1999/xlink">
<g id="graph0" class="graph" transform="scale(1 1) rotate(0) translate(7.992 115.992)">
<title>G</title>
<polygon fill="#000000" stroke="none" points="-7.992,7.992 -7.992,-115.992 1400.11,-115.992 1400.11,7.992 -7.992,7.992"/>
<!-- index.js -->
<g id="node1" class="node"><title>index.js</title>
<ellipse fill="none" stroke="#c6c5fe" cx="701.035" cy="-90" rx="42.4939" ry="18"/>
<text text-anchor="middle" x="701.035" y="-86.3" font-family="Arial" font-size="14.00" fill="#c6c5fe">index.js</text>
</g>
<!-- ../node_modules/fun&#45;curry/src/index.js -->
<g id="node2" class="node"><title>../node_modules/fun&#45;curry/src/index.js</title>
<ellipse fill="none" stroke="#cfffac" cx="167.035" cy="-18" rx="167.07" ry="18"/>
<text text-anchor="middle" x="167.035" y="-14.3" font-family="Arial" font-size="14.00" fill="#cfffac">../node_modules/fun&#45;curry/src/index.js</text>
</g>
<!-- index.js&#45;&gt;../node_modules/fun&#45;curry/src/index.js -->
<g id="edge1" class="edge"><title>index.js&#45;&gt;../node_modules/fun&#45;curry/src/index.js</title>
<path fill="none" stroke="#757575" d="M661.335,-83.7958C581.283,-73.3021 397.97,-49.2723 278.481,-33.6089"/>
<polygon fill="#757575" stroke="#757575" points="278.928,-30.1378 268.558,-32.3083 278.018,-37.0784 278.928,-30.1378"/>
</g>
<!-- ../node_modules/fun&#45;object/src/index.js -->
<g id="node3" class="node"><title>../node_modules/fun&#45;object/src/index.js</title>
<ellipse fill="none" stroke="#cfffac" cx="524.035" cy="-18" rx="172.47" ry="18"/>
<text text-anchor="middle" x="524.035" y="-14.3" font-family="Arial" font-size="14.00" fill="#cfffac">../node_modules/fun&#45;object/src/index.js</text>
</g>
<!-- index.js&#45;&gt;../node_modules/fun&#45;object/src/index.js -->
<g id="edge2" class="edge"><title>index.js&#45;&gt;../node_modules/fun&#45;object/src/index.js</title>
<path fill="none" stroke="#757575" d="M671.01,-77.1255C644.82,-66.768 606.265,-51.5201 575.213,-39.24"/>
<polygon fill="#757575" stroke="#757575" points="576.426,-35.9559 565.84,-35.5329 573.852,-42.4653 576.426,-35.9559"/>
</g>
<!-- ../node_modules/fun&#45;type/src/index.js -->
<g id="node4" class="node"><title>../node_modules/fun&#45;type/src/index.js</title>
<ellipse fill="none" stroke="#cfffac" cx="879.035" cy="-18" rx="164.371" ry="18"/>
<text text-anchor="middle" x="879.035" y="-14.3" font-family="Arial" font-size="14.00" fill="#cfffac">../node_modules/fun&#45;type/src/index.js</text>
</g>
<!-- index.js&#45;&gt;../node_modules/fun&#45;type/src/index.js -->
<g id="edge3" class="edge"><title>index.js&#45;&gt;../node_modules/fun&#45;type/src/index.js</title>
<path fill="none" stroke="#757575" d="M731.23,-77.1255C757.568,-66.768 796.341,-51.5201 827.568,-39.24"/>
<polygon fill="#757575" stroke="#757575" points="828.969,-42.4499 836.994,-35.5329 826.407,-35.9355 828.969,-42.4499"/>
</g>
<!-- ../node_modules/guarded/src/index.js -->
<g id="node5" class="node"><title>../node_modules/guarded/src/index.js</title>
<ellipse fill="none" stroke="#cfffac" cx="1227.04" cy="-18" rx="165.171" ry="18"/>
<text text-anchor="middle" x="1227.04" y="-14.3" font-family="Arial" font-size="14.00" fill="#cfffac">../node_modules/guarded/src/index.js</text>
</g>
<!-- index.js&#45;&gt;../node_modules/guarded/src/index.js -->
<g id="edge4" class="edge"><title>index.js&#45;&gt;../node_modules/guarded/src/index.js</title>
<path fill="none" stroke="#757575" d="M741.002,-83.6812C820.208,-73.1406 999.56,-49.2724 1116.84,-33.6647"/>
<polygon fill="#757575" stroke="#757575" points="1117.48,-37.1102 1126.93,-32.3216 1116.56,-30.1714 1117.48,-37.1102"/>
</g>
</g>
</svg>
